PathFileType	4	(X/Y/Z)	E:/New_biomech_experiments/MICROGRAVITY MOCAP/Session 2024-06-22/Neeraj_StickPose_22_06_24.trc	
DataRate	CameraRate	NumFrames	NumMarkers	Units	OrigDataRate	OrigDataStartFrame	OrigNumFrames	
120.00	120.00	20	19	m	120.00	1	1570	
Frame#	Time	 RSHO			 RBAK			 LBHD			 RUPA			 PRSHO			 RWRA			 RELB			 RFRM			 CLAV			 STRN			 ARSHO			 RFHD			 LFHD			 DIA			 C7			 RBHD			 MRELB			 RWRB			 T10			
		X1	Y1	Z1	X2	Y2	Z2	X3	Y3	Z3	X4	Y4	Z4	X5	Y5	Z5	X6	Y6	Z6	X7	Y7	Z7	X8	Y8	Z8	X9	Y9	Z9	X10	Y10	Z10	X11	Y11	Z11	X12	Y12	Z12	X13	Y13	Z13	X14	Y14	Z14	X15	Y15	Z15	X16	Y16	Z16	X17	Y17	Z17	X18	Y18	Z18	X19	Y19	Z19	

1	0.000	-0.02536	1.51720	0.18983	-0.13094	1.36223	0.04879	-0.06069	1.71606	-0.07941	-0.00696	1.30321	0.23461	-0.11091	1.46387	0.13361	0.03583	0.88385	0.21132	-0.01023	1.16102	0.24125	-0.00130	1.02574	0.25299	0.09035	1.48614	-0.02558	0.13347	1.32456	-0.01931	0.07152	1.46074	0.14077	0.04344	1.81529	0.06023	0.05426	1.82947	-0.04208	0.07398	1.16640	0.13778	-0.10341	1.52900	-0.01804	-0.07966	1.71541	0.02408	-0.07173	1.14368	0.13829	-0.06009	0.86450	0.23693	-0.12094	1.33319	-0.02128 
2	0.008	-0.02534	1.51718	0.18985	-0.13092	1.36222	0.04879	-0.06068	1.71606	-0.07940	-0.00694	1.30320	0.23462	-0.11090	1.46387	0.13362	0.03586	0.88383	0.21130	-0.01023	1.16100	0.24123	-0.00128	1.02573	0.25298	0.09038	1.48614	-0.02556	0.13349	1.32456	-0.01930	0.07154	1.46073	0.14079	0.04341	1.81529	0.06028	0.05426	1.82947	-0.04201	0.07402	1.16640	0.13778	-0.10338	1.52900	-0.01803	-0.07967	1.71539	0.02409	-0.07169	1.14367	0.13827	-0.06008	0.86449	0.23690	-0.12090	1.33318	-0.02127 
3	0.017	-0.02532	1.51717	0.18987	-0.13089	1.36221	0.04879	-0.06067	1.71605	-0.07938	-0.00692	1.30318	0.23463	-0.11088	1.46385	0.13363	0.03588	0.88381	0.21128	-0.01022	1.16098	0.24122	-0.00125	1.02572	0.25296	0.09040	1.48614	-0.02554	0.13352	1.32456	-0.01929	0.07156	1.46073	0.14081	0.04338	1.81528	0.06032	0.05427	1.82946	-0.04195	0.07406	1.16640	0.13779	-0.10336	1.52899	-0.01802	-0.07968	1.71537	0.02411	-0.07165	1.14365	0.13825	-0.06006	0.86447	0.23687	-0.12087	1.33317	-0.02127 
4	0.025	-0.02530	1.51716	0.18989	-0.13087	1.36220	0.04880	-0.06066	1.71604	-0.07936	-0.00690	1.30316	0.23463	-0.11086	1.46384	0.13364	0.03590	0.88379	0.21126	-0.01020	1.16096	0.24122	-0.00123	1.02570	0.25295	0.09043	1.48614	-0.02552	0.13355	1.32456	-0.01927	0.07158	1.46072	0.14083	0.04335	1.81528	0.06036	0.05427	1.82946	-0.04189	0.07410	1.16640	0.13780	-0.10333	1.52898	-0.01801	-0.07969	1.71534	0.02412	-0.07162	1.14364	0.13824	-0.06005	0.86445	0.23684	-0.12084	1.33317	-0.02126 
5	0.033	-0.02528	1.51715	0.18990	-0.13084	1.36219	0.04880	-0.06065	1.71604	-0.07935	-0.00688	1.30314	0.23464	-0.11084	1.46383	0.13364	0.03592	0.88377	0.21125	-0.01018	1.16095	0.24122	-0.00121	1.02569	0.25294	0.09045	1.48614	-0.02550	0.13358	1.32456	-0.01926	0.07160	1.46071	0.14084	0.04333	1.81528	0.06040	0.05427	1.82946	-0.04184	0.07414	1.16640	0.13780	-0.10331	1.52898	-0.01800	-0.07970	1.71532	0.02414	-0.07159	1.14363	0.13824	-0.06003	0.86444	0.23682	-0.12080	1.33315	-0.02126 
6	0.042	-0.02526	1.51713	0.18991	-0.13081	1.36218	0.04880	-0.06064	1.71603	-0.07933	-0.00686	1.30312	0.23465	-0.11082	1.46382	0.13365	0.03594	0.88375	0.21123	-0.01016	1.16094	0.24123	-0.00119	1.02567	0.25293	0.09048	1.48614	-0.02548	0.13361	1.32456	-0.01925	0.07161	1.46070	0.14085	0.04331	1.81527	0.06044	0.05426	1.82946	-0.04180	0.07418	1.16640	0.13781	-0.10328	1.52897	-0.01799	-0.07970	1.71529	0.02415	-0.07157	1.14361	0.13824	-0.06002	0.86442	0.23680	-0.12077	1.33314	-0.02125 
7	0.050	-0.02525	1.51713	0.18992	-0.13079	1.36217	0.04880	-0.06063	1.71602	-0.07931	-0.00683	1.30310	0.23466	-0.11080	1.46381	0.13366	0.03596	0.88374	0.21122	-0.01014	1.16093	0.24124	-0.00117	1.02566	0.25293	0.09051	1.48614	-0.02547	0.13363	1.32456	-0.01923	0.07163	1.46069	0.14086	0.04329	1.81527	0.06047	0.05426	1.82947	-0.04175	0.07422	1.16640	0.13782	-0.10326	1.52897	-0.01798	-0.07971	1.71528	0.02416	-0.07156	1.14360	0.13824	-0.06000	0.86441	0.23679	-0.12074	1.33313	-0.02125 
8	0.058	-0.02524	1.51712	0.18993	-0.13076	1.36216	0.04880	-0.06063	1.71601	-0.07930	-0.00681	1.30308	0.23467	-0.11078	1.46379	0.13366	0.03598	0.88373	0.21121	-0.01012	1.16091	0.24126	-0.00115	1.02565	0.25293	0.09054	1.48614	-0.02545	0.13365	1.32456	-0.01922	0.07165	1.46068	0.14087	0.04327	1.81527	0.06051	0.05425	1.82947	-0.04171	0.07426	1.16640	0.13782	-0.10323	1.52896	-0.01798	-0.07971	1.71526	0.02417	-0.07155	1.14359	0.13825	-0.05998	0.86439	0.23678	-0.12070	1.33313	-0.02125 
9	0.067	-0.02524	1.51711	0.18993	-0.13073	1.36216	0.04880	-0.06062	1.71600	-0.07928	-0.00678	1.30306	0.23469	-0.11076	1.46378	0.13366	0.03600	0.88372	0.21120	-0.01009	1.16091	0.24129	-0.00114	1.02564	0.25293	0.09057	1.48613	-0.02544	0.13367	1.32456	-0.01920	0.07166	1.46068	0.14088	0.04326	1.81527	0.06054	0.05423	1.82948	-0.04168	0.07430	1.16640	0.13783	-0.10320	1.52896	-0.01797	-0.07971	1.71525	0.02418	-0.07153	1.14358	0.13826	-0.05996	0.86438	0.23677	-0.12067	1.33312	-0.02125 
10	0.075	-0.02523	1.51711	0.18993	-0.13070	1.36215	0.04879	-0.06062	1.71600	-0.07926	-0.00675	1.30304	0.23470	-0.11074	1.46378	0.13366	0.03602	0.88372	0.21119	-0.01007	1.16090	0.24131	-0.00113	1.02563	0.25293	0.09059	1.48613	-0.02543	0.13370	1.32456	-0.01919	0.07168	1.46067	0.14089	0.04324	1.81527	0.06057	0.05421	1.82948	-0.04165	0.07434	1.16641	0.13784	-0.10317	1.52895	-0.01797	-0.07971	1.71523	0.02419	-0.07151	1.14358	0.13826	-0.05995	0.86437	0.23677	-0.12064	1.33312	-0.02125 
11	0.083	-0.02522	1.51712	0.18993	-0.13067	1.36215	0.04878	-0.06061	1.71599	-0.07925	-0.00672	1.30302	0.23471	-0.11072	1.46377	0.13366	0.03603	0.88371	0.21120	-0.01005	1.16089	0.24132	-0.00112	1.02562	0.25294	0.09062	1.48613	-0.02542	0.13372	1.32455	-0.01918	0.07170	1.46066	0.14091	0.04323	1.81526	0.06059	0.05420	1.82949	-0.04163	0.07438	1.16641	0.13785	-0.10313	1.52895	-0.01797	-0.07971	1.71522	0.02420	-0.07149	1.14357	0.13826	-0.05994	0.86436	0.23676	-0.12061	1.33312	-0.02125 
12	0.092	-0.02522	1.51713	0.18993	-0.13064	1.36214	0.04878	-0.06060	1.71598	-0.07923	-0.00670	1.30301	0.23472	-0.11070	1.46377	0.13366	0.03605	0.88371	0.21121	-0.01003	1.16089	0.24133	-0.00111	1.02562	0.25294	0.09065	1.48612	-0.02541	0.13374	1.32455	-0.01917	0.07173	1.46066	0.14092	0.04322	1.81526	0.06061	0.05420	1.82949	-0.04159	0.07443	1.16641	0.13785	-0.10310	1.52895	-0.01797	-0.07970	1.71520	0.02421	-0.07147	1.14357	0.13825	-0.05993	0.86436	0.23676	-0.12059	1.33312	-0.02125 
13	0.100	-0.02522	1.51713	0.18993	-0.13061	1.36214	0.04877	-0.06059	1.71597	-0.07922	-0.00668	1.30301	0.23472	-0.11069	1.46377	0.13366	0.03606	0.88371	0.21122	-0.01001	1.16089	0.24134	-0.00110	1.02562	0.25295	0.09067	1.48612	-0.02540	0.13377	1.32455	-0.01916	0.07175	1.46066	0.14092	0.04322	1.81525	0.06063	0.05421	1.82949	-0.04156	0.07447	1.16642	0.13786	-0.10307	1.52895	-0.01797	-0.07969	1.71518	0.02422	-0.07145	1.14358	0.13825	-0.05993	0.86437	0.23676	-0.12056	1.33312	-0.02126 
14	0.108	-0.02521	1.51714	0.18993	-0.13058	1.36214	0.04877	-0.06058	1.71596	-0.07921	-0.00668	1.30302	0.23471	-0.11067	1.46377	0.13366	0.03607	0.88370	0.21124	-0.00999	1.16089	0.24135	-0.00109	1.02562	0.25295	0.09070	1.48612	-0.02539	0.13379	1.32455	-0.01916	0.07177	1.46066	0.14093	0.04321	1.81525	0.06065	0.05422	1.82949	-0.04153	0.07452	1.16643	0.13787	-0.10304	1.52895	-0.01797	-0.07969	1.71517	0.02422	-0.07142	1.14358	0.13824	-0.05992	0.86438	0.23676	-0.12053	1.33312	-0.02126 
15	0.117	-0.02521	1.51714	0.18993	-0.13055	1.36214	0.04877	-0.06057	1.71595	-0.07919	-0.00667	1.30302	0.23471	-0.11064	1.46377	0.13366	0.03608	0.88371	0.21126	-0.00997	1.16089	0.24136	-0.00108	1.02562	0.25296	0.09072	1.48611	-0.02539	0.13382	1.32455	-0.01915	0.07179	1.46067	0.14094	0.04322	1.81525	0.06067	0.05423	1.82950	-0.04151	0.07457	1.16644	0.13789	-0.10301	1.52895	-0.01797	-0.07968	1.71516	0.02423	-0.07140	1.14359	0.13824	-0.05992	0.86439	0.23676	-0.12051	1.33312	-0.02126 
16	0.125	-0.02522	1.51716	0.18992	-0.13052	1.36214	0.04877	-0.06055	1.71594	-0.07918	-0.00665	1.30302	0.23471	-0.11062	1.46378	0.13366	0.03610	0.88371	0.21129	-0.00995	1.16089	0.24136	-0.00107	1.02563	0.25297	0.09075	1.48611	-0.02538	0.13384	1.32455	-0.01915	0.07182	1.46067	0.14094	0.04322	1.81525	0.06068	0.05424	1.82950	-0.04150	0.07462	1.16646	0.13791	-0.10298	1.52895	-0.01797	-0.07967	1.71515	0.02423	-0.07137	1.14360	0.13823	-0.05991	0.86440	0.23677	-0.12049	1.33312	-0.02126 
17	0.133	-0.02523	1.51717	0.18991	-0.13049	1.36214	0.04877	-0.06054	1.71592	-0.07918	-0.00662	1.30301	0.23472	-0.11060	1.46378	0.13366	0.03611	0.88372	0.21131	-0.00993	1.16089	0.24137	-0.00105	1.02563	0.25298	0.09077	1.48611	-0.02538	0.13387	1.32455	-0.01914	0.07184	1.46068	0.14094	0.04323	1.81525	0.06069	0.05424	1.82950	-0.04150	0.07467	1.16647	0.13792	-0.10296	1.52895	-0.01797	-0.07965	1.71514	0.02423	-0.07135	1.14361	0.13824	-0.05990	0.86441	0.23679	-0.12046	1.33312	-0.02127 
18	0.142	-0.02523	1.51719	0.18990	-0.13046	1.36214	0.04877	-0.06052	1.71591	-0.07917	-0.00661	1.30302	0.23472	-0.11058	1.46378	0.13366	0.03613	0.88372	0.21133	-0.00990	1.16090	0.24139	-0.00104	1.02563	0.25299	0.09080	1.48611	-0.02537	0.13389	1.32456	-0.01914	0.07187	1.46068	0.14094	0.04324	1.81524	0.06070	0.05425	1.82950	-0.04150	0.07472	1.16648	0.13794	-0.10293	1.52895	-0.01797	-0.07964	1.71513	0.02423	-0.07133	1.14361	0.13825	-0.05989	0.86441	0.23681	-0.12043	1.33311	-0.02127 
19	0.150	-0.02521	1.51718	0.18990	-0.13043	1.36214	0.04876	-0.06050	1.71591	-0.07918	-0.00660	1.30303	0.23473	-0.11055	1.46378	0.13366	0.03615	0.88372	0.21136	-0.00988	1.16090	0.24141	-0.00102	1.02564	0.25301	0.09082	1.48611	-0.02537	0.13392	1.32456	-0.01913	0.07189	1.46068	0.14095	0.04325	1.81524	0.06071	0.05427	1.82950	-0.04150	0.07476	1.16649	0.13795	-0.10290	1.52895	-0.01797	-0.07962	1.71512	0.02423	-0.07130	1.14361	0.13826	-0.05987	0.86442	0.23684	-0.12040	1.33311	-0.02127 
20	0.158	-0.02517	1.51717	0.18991	-0.13040	1.36214	0.04876	-0.06047	1.71591	-0.07918	-0.00659	1.30304	0.23473	-0.11052	1.46379	0.13366	0.03618	0.88373	0.21139	-0.00986	1.16090	0.24144	-0.00100	1.02564	0.25303	0.09084	1.48611	-0.02537	0.13394	1.32456	-0.01913	0.07192	1.46068	0.14094	0.04327	1.81524	0.06071	0.05428	1.82950	-0.04150	0.07479	1.16649	0.13795	-0.10288	1.52895	-0.01797	-0.07960	1.71511	0.02423	-0.07128	1.14361	0.13828	-0.05985	0.86442	0.23687	-0.12037	1.33311	-0.02127 
